<?xml version="1.0" encoding="UTF-8" standalone="no"?>
<svg
   version="1.1"
   width="48"
   height="48"
   viewBox="0 0 12.7 12.7"
   id="svg378"
   sodipodi:docname="icon.svg"
   xml:space="preserve"
   inkscape:version="1.2.2 (b0a8486541, 2022-12-01)"
   xmlns:inkscape="http://www.inkscape.org/namespaces/inkscape"
   xmlns:sodipodi="http://sodipodi.sourceforge.net/DTD/sodipodi-0.dtd"
   xmlns="http://www.w3.org/2000/svg"
   xmlns:svg="http://www.w3.org/2000/svg"><defs
     id="defs382" /><sodipodi:namedview
     id="namedview380"
     pagecolor="#505050"
     bordercolor="#ffffff"
     borderopacity="1"
     inkscape:showpageshadow="0"
     inkscape:pageopacity="0"
     inkscape:pagecheckerboard="1"
     inkscape:deskcolor="#505050"
     showgrid="false"
     inkscape:zoom="8.96875"
     inkscape:cx="25.365854"
     inkscape:cy="11.428571"
     inkscape:window-width="1920"
     inkscape:window-height="1003"
     inkscape:window-x="624"
     inkscape:window-y="1080"
     inkscape:window-maximized="1"
     inkscape:current-layer="svg378" /><path
     style="fill:#008080;fill-opacity:1;stroke-width:0.0242685"
     d="M 6.1424601,12.595967 C 6.0342255,12.53897 5.5416349,12.279228 5.0478146,12.018763 4.5539941,11.758299 4.011591,11.472616 3.8424744,11.383911 3.339106,11.119884 1.906069,10.382383 1.2596028,10.054657 0.92813426,9.8866174 0.6274865,9.7289613 0.59149657,9.7043074 0.53569507,9.6660836 0.51501816,9.6145514 0.45106568,9.354313 0.26877301,8.6125218 0.20059511,7.9675535 0.20129823,6.9914874 0.20218878,5.7546233 0.33931096,4.8567161 0.66008861,3.9872259 0.77964185,3.6631705 1.0445662,3.1165224 1.2099312,2.8526778 L 1.3120385,2.6897632 1.2427743,2.6398561 C 1.0856341,2.5266362 0.6721552,2.0904503 0.54280277,1.9014475 0.28328256,1.5222507 0.11768335,1.1166218 0.0446257,0.68118163 0.00204811,0.42740931 -0.01517889,0.02824431 0.01577124,0.01260959 0.02681871,0.00702517 0.09553356,0.04473649 0.16846507,0.09640885 0.63545481,0.42726522 1.3775213,0.81167156 2.0268233,1.0590781 c 0.3969922,0.1512679 0.7860713,0.2837498 0.868598,0.295759 0.02706,0.00394 0.1709609,-0.042879 0.319784,-0.1040327 C 3.9337854,0.95551721 4.6381074,0.76855067 5.4167959,0.66637903 5.8466127,0.60998112 6.8354237,0.61021675 7.2740036,0.6668219 8.0838863,0.77134476 8.8676352,0.98094316 9.5819838,1.2840456 l 0.2170842,0.09211 0.324089,-0.1116448 c 0.9719,-0.33480691 1.713216,-0.69154518 2.338181,-1.125185 C 12.581452,0.05598626 12.688845,-0.00671037 12.7,0 12.73054,0.01837839 12.7054,0.47393022 12.66097,0.70512629 12.57919,1.1313157 12.403358,1.5509256 12.155287,1.9119291 c -0.125946,0.1832928 -0.47714,0.5499836 -0.680373,0.71041 l -0.103871,0.081998 0.123505,0.1915418 c 0.291016,0.4513532 0.565213,1.0900508 0.719512,1.6759863 0.176819,0.6714364 0.255404,1.2829289 0.278484,2.1668111 0.0243,0.9303416 -0.04913,1.7634047 -0.228552,2.5933662 -0.05623,0.2600959 -0.076,0.3142071 -0.129774,0.3551854 -0.03489,0.026591 -0.533887,0.2905876 -1.108884,0.5866631 C 9.2637354,11.180957 8.5681661,11.54361 7.2728775,12.230317 6.7852023,12.488863 6.3756327,12.70022 6.3627228,12.7 6.3498122,12.699778 6.250695,12.652968 6.1424601,12.59597 Z"
     id="path1137" /><path
     style="fill:#808080;stroke-width:0.0242685"
     d="M 6.5440931,9.0952987 C 7.0672079,8.3768821 7.395891,7.9597513 7.4388615,7.9597513 c 0.025405,0 0.087261,0.020305 0.1374574,0.045123 0.050196,0.024819 0.1798207,0.07223 0.2880554,0.1053594 0.9974344,0.3053026 2.1265295,0.078874 2.8633557,-0.5742185 0.419339,-0.3716854 0.723265,-0.9188099 0.828619,-1.4916769 0.05858,-0.3185439 0.04131,-0.8005927 -0.04247,-1.185162 C 11.446406,4.5494391 11.273965,4.0955222 11.118778,3.8191378 11.016861,3.6376279 10.731709,3.219266 10.622198,3.0905794 l -0.05843,-0.068668 -0.242749,0.040069 C 9.1665408,3.2525433 8.1321779,3.6659941 7.2808828,4.277168 7.0502293,4.4427619 6.6638313,4.7654115 6.5001704,4.9290768 6.439853,4.9893956 6.373059,5.0387458 6.3517369,5.0387458 c -0.021321,0 -0.099271,-0.06027 -0.17322,-0.133932 C 5.7323711,4.4603947 5.009434,3.9619192 4.395947,3.6757061 3.7810723,3.3888454 2.9568707,3.1421536 2.3542484,3.0646052 2.2866019,3.0558998 2.2127613,3.0435495 2.1901585,3.0371597 2.0799529,3.0060041 1.6833061,3.5659855 1.4507567,4.0810399 1.0045722,5.0692552 0.99870988,6.0074259 1.4335511,6.8344461 2.0764414,8.0571521 3.672429,8.576242 5.0879676,8.0230336 l 0.2077343,-0.081185 0.1055364,0.1346501 c 0.058047,0.074057 0.2638165,0.3501343 0.4572698,0.6135035 0.4699636,0.6398139 0.4687744,0.6383245 0.501436,0.6280327 0.015669,-0.00494 0.098544,-0.1051709 0.184149,-0.2227362 z"
     id="path1139" /><path
     style="fill:#008080;stroke-width:0.0242685"
     d="M 8.5039426,7.2294227 C 8.0281024,7.1419057 7.640797,6.920557 7.3697956,6.5812472 7.1502404,6.3063508 7.0649142,6.0751686 7.0649142,5.7552024 c 0,-0.6159256 0.4021893,-1.0801854 1.3230219,-1.5272052 0.4253648,-0.2064942 1.2074266,-0.4821546 1.367895,-0.4821546 0.070101,0 0.2766909,0.1377833 0.4393529,0.2930236 0.379915,0.3625817 0.586414,0.8543377 0.585762,1.3949341 -0.0011,0.9128444 -0.605508,1.626453 -1.522755,1.7978788 -0.2200101,0.041117 -0.5233505,0.04021 -0.7542484,-0.00226 z"
     id="path1147" /><path
     style="fill:#00ff00;stroke-width:0.0242685"
     d="M 9.1959458,6.5856787 C 9.5006647,6.5067057 9.8157533,6.2644334 9.9506005,6.0054231 10.238199,5.4530128 10.061525,4.7566093 9.5792655,4.5417123 9.4630058,4.4899065 9.4202443,4.483631 9.2446252,4.4926028 c -0.1107407,0.00566 -0.2146933,0.01832 -0.2310039,0.028126 -0.020221,0.012162 0.00882,0.055287 0.091264,0.1355343 0.066505,0.064731 0.1577515,0.1905785 0.2027665,0.2796591 0.074372,0.1471713 0.081847,0.181677 0.081847,0.3778063 0,0.1877504 -0.00893,0.2335473 -0.068633,0.3518753 C 9.1912845,5.9224394 8.9672592,6.0553192 8.6638347,6.0553192 8.3584169,6.0553192 8.11663,5.9085823 7.9825613,5.6418647 7.9263973,5.5301292 7.9150653,5.4766549 7.9163923,5.3295697 l 0.0016,-0.1774744 -0.042133,0.080995 c -0.023174,0.044548 -0.061178,0.1557293 -0.084454,0.2470722 -0.035954,0.1410902 -0.037931,0.1878004 -0.013124,0.310457 0.076374,0.3778517 0.3440613,0.6532687 0.7612215,0.7832047 0.1663099,0.051801 0.4804304,0.057475 0.6564573,0.011853 z"
     id="path1149" /><path
     style="fill:#008080;stroke-width:0.0242685"
     d="M 3.4125928,7.2292861 C 2.6943756,7.0841529 2.1513325,6.5745626 1.9696375,5.8752201 1.9262328,5.7081568 1.9201545,5.6291764 1.9303069,5.3641681 1.9436599,5.015612 1.9813545,4.8508457 2.1071368,4.5912318 2.2287791,4.3401636 2.3648056,4.1571462 2.5615266,3.9798705 2.7380953,3.820755 2.8631294,3.7458426 2.9521346,3.7458426 c 0.082999,0 0.7385176,0.2142871 1.0375524,0.3391723 0.8721011,0.3642143 1.3928405,0.7858339 1.5784374,1.2779906 0.072415,0.1920283 0.077749,0.5615013 0.010866,0.7531607 C 5.4765313,6.4098117 5.3234755,6.6260539 5.0775996,6.8245553 4.8959181,6.9712315 4.5514832,7.145027 4.3221505,7.2057413 4.1155317,7.2604421 3.6290884,7.2730343 3.4125928,7.2292861 Z"
     id="path1143" /><path
     style="fill:#00ff00;stroke-width:0.0242685"
     d="M 4.1393448,6.5803781 C 4.5469235,6.4626753 4.8168832,6.2014883 4.9140868,5.8308128 4.9564684,5.6691995 4.9510275,5.5776329 4.8861046,5.359726 4.8201819,5.138468 4.7895294,5.1333892 4.7895294,5.3437221 4.7895294,5.560488 4.7345433,5.69458 4.586183,5.8396126 4.429172,5.9931033 4.2792387,6.053511 4.051564,6.055012 3.8230621,6.0565181 3.6733191,5.9994081 3.5235488,5.8536324 3.372855,5.7069579 3.3160117,5.5620097 3.3166541,5.3260582 3.3174044,5.0507126 3.3813934,4.8935958 3.5747015,4.6924607 L 3.7203403,4.5409264 3.6424444,4.514496 C 3.5324868,4.4771873 3.2768655,4.4816872 3.1564109,4.523048 2.7462268,4.6639086 2.5101974,5.2318981 2.6493488,5.743259 c 0.110019,0.4043007 0.4415893,0.7305568 0.8515075,0.8378571 0.1790513,0.046869 0.4748169,0.046525 0.6384901,-7.416e-4 z"
     id="path1145" /><path
     style="fill:#808000;stroke-width:0.0242685"
     d="M 6.2828518,8.6252749 C 6.2556117,8.5818642 6.065324,8.240072 5.8599898,7.8657367 5.5174227,7.2412176 5.4890178,7.1800491 5.515318,7.123514 5.5709675,7.0038904 5.8801387,6.5093411 5.9895497,6.3649341 6.1296291,6.1800505 6.2775162,6.1006298 6.413606,6.137204 6.6008724,6.187532 6.7241511,6.3308154 7.08639,6.9191629 L 7.2331018,7.1574515 7.1189593,7.3610744 C 7.0561807,7.4730662 6.8647407,7.8174451 6.6935364,8.1263592 6.5223315,8.4352734 6.3710336,8.6916623 6.3573174,8.6961123 6.343593,8.7005774 6.3100924,8.6686862 6.2828518,8.6252749 Z"
     id="path1141" /></svg>
